<svg width="24" height="24" xmlns="http://www.w3.org/2000/svg"><path d="M4.737 22.105V1.895h-.948a1.895 1.895 0 00-1.894 1.894v16.422c0 1.046.848 1.894 1.894 1.894h.948zm1.895 0H20.21a1.895 1.895 0 001.894-1.894V3.789a1.895 1.895 0 00-1.894-1.894H6.63v20.21zm11.36-10.735a.947.947 0 111.34 1.34l-5.36 5.359c-.37.37-.97.37-1.34 0L9.436 14.87a.947.947 0 011.34-1.34l2.528 2.528 4.689-4.69zM3.789 0h16.422A3.79 3.79 0 0124 3.79v16.42A3.79 3.79 0 0120.21 24H3.79A3.79 3.79 0 010 20.21V3.79A3.79 3.79 0 013.79 0zm6.316 7.85a.947.947 0 110-1.894h8.21a.947.947 0 010 1.895h-8.21z" fill-rule="nonzero"/></svg>
