<svg xmlns="http://www.w3.org/2000/svg" width="839.781" height="235.937"><path d="M764.894 26.609c.634 27.172 9.379 91.666 74.876 125.968l-11.375 21.148c-42.066-22.03-64.147-54.479-75.651-84.568a156.127 156.127 0 0 1-64.762 78.39 51.666 51.666 0 0 1-27.278 7.576H515.765V151.18h7.5c20.277-67.114-2.933-98.706-3.181-99.013l19.031-14.859c1.292 1.612 29.865 38.467 9.374 113.872h112.22a27.205 27.205 0 0 0 14.374-3.91c57.766-35.781 65.037-97.6 65.514-122.37V.88h24.346v24.613h-.025c-.011.369-.015.731-.024 1.116zm-142.719 62.1l7.357-25.652c21.48 13.185 39.371 34.384 47.792 66.566l-23.168 7.139c-7.262-22.927-13.945-34.446-31.981-48.053zm-49.834 54l-14.741-19.02c23.585-17.795 35.03-42.758 40.4-65.55h-33.028V34.192h36.8A165.922 165.922 0 0 0 601.461.88h24.421a193.962 193.962 0 0 1 .32 33.312h35.654v23.942h-38.922c-5.752 28.453-19.478 61.096-50.593 84.57zM520.92 39.067a13.575 13.575 0 1 1 13.758-13.574 13.667 13.667 0 0 1-13.758 13.574zm-66.891 162.44l7.767 2.193V24.822H300.51v200.372h-24.268V.88h209.822v234.582l-32.035-9.05v-24.905zm-219.864-31.045h-62.158v65l-34.474-9.4v-24.845l10.206 2.787v-33.542H90.456v-23.941h57.281v-22.559H90.456v-23.946h57.281V77.454H97.456a58.35 58.35 0 0 0 1.645-23.943h82.828V35.782h-70.985c-4.828 4.591-9.595 8.914-13.039 11.556l-.013-.017a57.805 57.805 0 0 0-11.035-22.1c8.1-7.132 20.928-20.079 25.908-25.225l12.564 11.843h80.864V53.51h27.972v46.505h25.9v23.947h-25.9v46.5zm-24.268-93.01h-37.89v22.562h37.89v-22.56zm0 46.505h-37.89v22.562h37.89v-22.557zm-158.441 99.46l-23.1-7.366c16.66-50.825 16.475-88.617 11.847-114.1h-.078a40.14 40.14 0 1 1 23.485-7.589c5.892 29.108 6.594 71.846-12.154 129.055zM40.127 39.591a22.262 22.262 0 1 0 22.284 22.262 22.272 22.272 0 0 0-22.284-22.262zm272.529 39.23l14.148-19.453a109 109 0 0 1 16.184 14.925 109 109 0 0 1 16.184-14.925l7.1 9.758 7.088 9.666-.037.027a93.167 93.167 0 0 0-15.485 15.083 133.924 133.924 0 0 1 20.537 71.96h-24.268a110.748 110.748 0 0 0-11.165-48.913 111.045 111.045 0 0 0-11.086 48.913h-24.265a133.926 133.926 0 0 1 20.5-71.9 93.35 93.35 0 0 0-15.435-15.141zm73.527 0l14.149-19.453a109.021 109.021 0 0 1 16.18 14.923 109 109 0 0 1 16.181-14.923l14.147 19.451a93.13 93.13 0 0 0-15.484 15.082 133.936 133.936 0 0 1 20.54 71.961h-24.268a110.749 110.749 0 0 0-11.162-48.91 111.06 111.06 0 0 0-11.079 48.91h-24.269a133.935 133.935 0 0 1 20.5-71.9 93.345 93.345 0 0 0-15.44-15.141zm60.694-.029l-.037.027-7.073-9.724zm68.278 152.019c1.955 0 3-.965 3-4.191v-15.887h6.031v16.355c0 4.851-2.6 8.843-8.224 8.843-3.9 0-6.469-1.5-8.288-4.559l4.111-3.022a3.944 3.944 0 0 0 3.365 2.461zm20.713 4.653h-6.031v-24.731h6.031v24.729zm18.131-12.902l2.464 5.489h.166a77.052 77.052 0 0 1-.8-9.142v-8.177h5.723v24.73h-6.132l-6.2-11.936-2.459-5.419h-.171c.272 2.759.776 6.149.776 9.142v8.213h-5.73v-24.729h6.133zm24.594-12.3a11.149 11.149 0 0 1 8.021 3.226l-3.2 3.788a6.412 6.412 0 0 0-4.615-1.928c-3.709 0-6.369 2.858-6.369 7.68 0 4.922 2.222 7.78 6.873 7.78a4.341 4.341 0 0 0 2.393-.631v-3.993h-3.976v-4.851h9.336v11.568a12.518 12.518 0 0 1-8.36 3.027c-6.973 0-12.43-4.325-12.43-12.7-.003-8.24 5.626-12.966 12.327-12.966zm26.6 11.737l1.007 7.844h.136c.475-2.63.978-5.284 1.482-7.844l2.565-11.269h5.054l2.619 11.272c.51 2.526.948 5.185 1.451 7.844h.167c.307-2.659.639-5.284.947-7.844l1.618-11.269h5.723l-4.34 24.729h-7.584l-2.258-10.773c-.4-1.894-.74-3.887-.977-5.752h-.166c-.3 1.865-.611 3.858-.978 5.752l-2.192 10.773h-7.448l-4.58-24.731h6.163zm38.037-11.269l7.786 24.731h-6.334l-1.452-5.688h-7.412l-1.445 5.688h-6.132l7.779-24.731h7.21zm-1.143 14.461l-.539-2.1c-.676-2.46-1.315-5.419-1.991-7.944h-.13c-.61 2.6-1.28 5.484-1.92 7.944l-.539 2.1h5.119zm23.944-2.629l2.465 5.489h.166a76.837 76.837 0 0 1-.806-9.142v-8.177h5.723v24.73h-6.132l-6.2-11.936-2.459-5.419h-.172c.273 2.759.776 6.149.776 9.142v8.213h-5.726v-24.729h6.132zm24.594-12.3a11.154 11.154 0 0 1 8.023 3.226l-3.2 3.788a6.418 6.418 0 0 0-4.621-1.928c-3.7 0-6.363 2.858-6.363 7.68 0 4.922 2.221 7.78 6.872 7.78a4.342 4.342 0 0 0 2.394-.631v-3.993h-3.981v-4.851h9.337v11.568a12.522 12.522 0 0 1-8.36 3.027c-6.974 0-12.43-4.325-12.43-12.7 0-8.24 5.628-12.966 12.329-12.966zm41.184 12.7c0 8.616-5.054 12.5-12.365 12.5h-7.549v-24.729h7.211c7.65 0 12.703 3.618 12.703 12.229zm-13.882-7.511v15.227h.812c4.04 0 6.908-1.83 6.908-7.716s-2.868-7.511-6.908-7.511h-.812zm29.979-4.717l7.785 24.731h-6.335l-1.452-5.688h-7.412l-1.445 5.688h-6.132l7.779-24.731h7.21zm-1.143 14.461l-.539-2.1c-.676-2.46-1.315-5.419-1.991-7.944h-.13c-.61 2.6-1.28 5.484-1.92 7.944l-.539 2.1h5.119zm38.316-6.687a7.312 7.312 0 0 1-4.314 7.148l5.591 9.806h-6.74l-4.616-8.71h-2.9v8.71h-6.031v-24.729h9.2c5.36 0 9.81 1.794 9.81 7.774zm-12.976-3.092v6.646h2.7c2.868 0 4.385-1.233 4.385-3.559s-1.517-3.092-4.385-3.092h-2.7zm33.76.234h-9.877v4.588h8.39v4.986h-8.39v5.255h10.245v4.983h-16.275v-24.729h15.908v4.916zm17.71 6.912l2.464 5.489h.166a76.837 76.837 0 0 1-.806-9.142v-8.177h5.723v24.73h-6.132l-6.2-11.936-2.459-5.419h-.171c.272 2.759.775 6.149.775 9.142v8.213h-5.729v-24.729h6.132z" fill-rule="evenodd"/></svg>
