<?xml version="1.0" standalone="no"?><!DOCTYPE svg PUBLIC "-//W3C//DTD SVG 1.1//EN" "http://www.w3.org/Graphics/SVG/1.1/DTD/svg11.dtd"><svg t="1574841509671" class="icon" viewBox="0 0 1024 1024" version="1.1" xmlns="http://www.w3.org/2000/svg" p-id="2649" width="40" height="40" xmlns:xlink="http://www.w3.org/1999/xlink"><defs><style type="text/css"></style></defs><path d="M512 819.2A307.2 307.2 0 1 0 512 204.8a307.2 307.2 0 0 0 0 614.4z m0 56.888889A364.088889 364.088889 0 1 1 512 147.911111a364.088889 364.088889 0 0 1 0 728.177778z" fill="#8a8a8a" p-id="2650"></path><path d="M261.688889 483.555556a28.444444 28.444444 0 0 1 0 56.888888H79.644444a28.444444 28.444444 0 0 1 0-56.888888h182.044445zM944.355556 483.555556a28.444444 28.444444 0 1 1 0 56.888888h-182.044445a28.444444 28.444444 0 1 1 0-56.888888h182.044445zM540.444444 944.355556a28.444444 28.444444 0 1 1-56.888888 0v-182.044445a28.444444 28.444444 0 1 1 56.888888 0v182.044445zM540.444444 261.688889a28.444444 28.444444 0 0 1-56.888888 0V79.644444a28.444444 28.444444 0 0 1 56.888888 0v182.044445z" fill="#8a8a8a" p-id="2651"></path></svg>
